<svg width="0" height="0" class="hidden">
  <symbol viewBox="0 0 16 16" fill="currentColor" xmlns="http://www.w3.org/2000/svg" id="award">
    <path fill-rule="evenodd" d="M9.669.864L8 0 6.331.864l-1.858.282-.842 1.68-1.337 1.32L2.6 6l-.306 1.854 1.337 1.32.842 1.68 1.858.282L8 12l1.669-.864 1.858-.282.842-1.68 1.337-1.32L13.4 6l.306-1.854-1.337-1.32-.842-1.68L9.669.864zm1.196 1.193l-1.51-.229L8 1.126l-1.355.702-1.51.229-.684 1.365-1.086 1.072L3.614 6l-.25 1.506 1.087 1.072.684 1.365 1.51.229L8 10.874l1.356-.702 1.509-.229.684-1.365 1.086-1.072L12.387 6l.248-1.506-1.086-1.072-.684-1.365z"></path>
    <path d="M4 11.794V16l4-1 4 1v-4.206l-2.018.306L8 13.126 6.018 12.1 4 11.794z"></path>
  </symbol>
  <symbol viewBox="0 0 16 16" fill="currentColor" xmlns="http://www.w3.org/2000/svg" id="award-fill">
    <path d="M8 0l1.669.864 1.858.282.842 1.68 1.337 1.32L13.4 6l.306 1.854-1.337 1.32-.842 1.68-1.858.282L8 12l-1.669-.864-1.858-.282-.842-1.68-1.337-1.32L2.6 6l-.306-1.854 1.337-1.32.842-1.68L6.331.864 8 0z"></path>
    <path d="M4 11.794V16l4-1 4 1v-4.206l-2.018.306L8 13.126 6.018 12.1 4 11.794z"></path>
  </symbol>
  <symbol viewBox="0 0 16 16" fill="currentColor" xmlns="http://www.w3.org/2000/svg" id="brightness-alt-high-fill">
    <path fill-rule="evenodd" d="M4 11a4 4 0 1 1 8 0 .5.5 0 0 1-.5.5h-7A.5.5 0 0 1 4 11zm4-8a.5.5 0 0 1 .5.5v2a.5.5 0 0 1-1 0v-2A.5.5 0 0 1 8 3zm8 8a.5.5 0 0 1-.5.5h-2a.5.5 0 0 1 0-1h2a.5.5 0 0 1 .5.5zM3 11a.5.5 0 0 1-.5.5h-2a.5.5 0 0 1 0-1h2a.5.5 0 0 1 .5.5zm10.657-5.657a.5.5 0 0 1 0 .707l-1.414 1.414a.5.5 0 1 1-.707-.707l1.414-1.414a.5.5 0 0 1 .707 0zM4.464 7.464a.5.5 0 0 1-.707 0L2.343 6.05a.5.5 0 0 1 .707-.707l1.414 1.414a.5.5 0 0 1 0 .707z"></path>
  </symbol>
  <symbol viewBox="0 0 16 16" fill="currentColor" xmlns="http://www.w3.org/2000/svg" id="brightness-high">
    <path fill-rule="evenodd" d="M8 11a3 3 0 1 0 0-6 3 3 0 0 0 0 6zm0 1a4 4 0 1 0 0-8 4 4 0 0 0 0 8zM8 0a.5.5 0 0 1 .5.5v2a.5.5 0 0 1-1 0v-2A.5.5 0 0 1 8 0zm0 13a.5.5 0 0 1 .5.5v2a.5.5 0 0 1-1 0v-2A.5.5 0 0 1 8 13zm8-5a.5.5 0 0 1-.5.5h-2a.5.5 0 0 1 0-1h2a.5.5 0 0 1 .5.5zM3 8a.5.5 0 0 1-.5.5h-2a.5.5 0 0 1 0-1h2A.5.5 0 0 1 3 8zm10.657-5.657a.5.5 0 0 1 0 .707l-1.414 1.415a.5.5 0 1 1-.707-.708l1.414-1.414a.5.5 0 0 1 .707 0zm-9.193 9.193a.5.5 0 0 1 0 .707L3.05 13.657a.5.5 0 0 1-.707-.707l1.414-1.414a.5.5 0 0 1 .707 0zm9.193 2.121a.5.5 0 0 1-.707 0l-1.414-1.414a.5.5 0 0 1 .707-.707l1.414 1.414a.5.5 0 0 1 0 .707zM4.464 4.465a.5.5 0 0 1-.707 0L2.343 3.05a.5.5 0 1 1 .707-.707l1.414 1.414a.5.5 0 0 1 0 .708z"></path>
  </symbol>
  <symbol viewBox="0 0 16 16" fill="currentColor" xmlns="http://www.w3.org/2000/svg" id="cloud">
    <path fill-rule="evenodd" d="M4.887 7.2l-.964-.165A2.5 2.5 0 1 0 3.5 12h10a1.5 1.5 0 0 0 .237-2.981L12.7 8.854l.216-1.028a4 4 0 1 0-7.843-1.587l-.185.96zm9.084.341a5 5 0 0 0-9.88-1.492A3.5 3.5 0 1 0 3.5 13h9.999a2.5 2.5 0 0 0 .394-4.968c.033-.16.06-.324.077-.49z"></path>
  </symbol>
  <symbol viewBox="0 0 16 16" fill="currentColor" xmlns="http://www.w3.org/2000/svg" id="cloud-fill">
    <path fill-rule="evenodd" d="M3.5 13a3.5 3.5 0 1 1 .59-6.95 5.002 5.002 0 1 1 9.804 1.98A2.5 2.5 0 0 1 13.5 13h-10z"></path>
  </symbol>
  <symbol viewBox="0 0 16 16" fill="currentColor" xmlns="http://www.w3.org/2000/svg" id="door-closed">
    <path fill-rule="evenodd" d="M3 2a1 1 0 0 1 1-1h8a1 1 0 0 1 1 1v13a1 1 0 0 1-1 1H4a1 1 0 0 1-1-1V2zm1 0v13h8V2H4z"></path>
    <path d="M7 9a1 1 0 1 1-2 0 1 1 0 0 1 2 0z"></path>
    <path fill-rule="evenodd" d="M1 15.5a.5.5 0 0 1 .5-.5h13a.5.5 0 0 1 0 1h-13a.5.5 0 0 1-.5-.5z"></path>
  </symbol>
  <symbol viewBox="0 0 16 16" fill="currentColor" xmlns="http://www.w3.org/2000/svg" id="door-closed-fill">
    <path fill-rule="evenodd" d="M4 1a1 1 0 0 0-1 1v13H1.5a.5.5 0 0 0 0 1h13a.5.5 0 0 0 0-1H13V2a1 1 0 0 0-1-1H4zm2 9a1 1 0 1 0 0-2 1 1 0 0 0 0 2z"></path>
  </symbol>
  <symbol viewBox="0 0 16 16" fill="currentColor" xmlns="http://www.w3.org/2000/svg" id="droplet-half">
    <path fill-rule="evenodd" d="M7.21.8C7.69.295 8 0 8 0c.109.363.234.708.371 1.038.812 1.946 2.073 3.35 3.197 4.6C12.878 7.096 14 8.345 14 10a6 6 0 0 1-12 0C2 6.668 5.58 2.517 7.21.8zm.413 1.021A31.25 31.25 0 0 0 5.794 3.99c-.726.95-1.436 2.008-1.96 3.07C3.304 8.133 3 9.138 3 10a5 5 0 0 0 10 0c0-1.201-.796-2.157-2.181-3.7l-.03-.032C9.75 5.11 8.5 3.72 7.623 1.82z"></path>
    <path fill-rule="evenodd" d="M4.553 7.776c.82-1.641 1.717-2.753 2.093-3.13l.708.708c-.29.29-1.128 1.311-1.907 2.87l-.894-.448z"></path>
    <path d="M14 10a6 6 0 0 1-12 0s2.5 2.5 6.5.5S14 10 14 10z"></path>
  </symbol>
  <symbol viewBox="0 0 16 16" fill="currentColor" xmlns="http://www.w3.org/2000/svg" id="egg">
    <path fill-rule="evenodd" d="M8 15a5 5 0 0 0 5-5c0-1.956-.69-4.286-1.742-6.12-.524-.913-1.112-1.658-1.704-2.164C8.956 1.206 8.428 1 8 1c-.428 0-.956.206-1.554.716-.592.506-1.18 1.251-1.704 2.164C3.69 5.714 3 8.044 3 10a5 5 0 0 0 5 5zm0 1a6 6 0 0 0 6-6c0-4.314-3-10-6-10S2 5.686 2 10a6 6 0 0 0 6 6z"></path>
  </symbol>
  <symbol viewBox="0 0 16 16" fill="currentColor" xmlns="http://www.w3.org/2000/svg" id="eye">
    <path fill-rule="evenodd" d="M16 8s-3-5.5-8-5.5S0 8 0 8s3 5.5 8 5.5S16 8 16 8zM1.173 8a13.134 13.134 0 0 0 1.66 2.043C4.12 11.332 5.88 12.5 8 12.5c2.12 0 3.879-1.168 5.168-2.457A13.134 13.134 0 0 0 14.828 8a13.133 13.133 0 0 0-1.66-2.043C11.879 4.668 10.119 3.5 8 3.5c-2.12 0-3.879 1.168-5.168 2.457A13.133 13.133 0 0 0 1.172 8z"></path>
    <path fill-rule="evenodd" d="M8 5.5a2.5 2.5 0 1 0 0 5 2.5 2.5 0 0 0 0-5zM4.5 8a3.5 3.5 0 1 1 7 0 3.5 3.5 0 0 1-7 0z"></path>
  </symbol>
  <symbol viewBox="0 0 16 16" fill="currentColor" xmlns="http://www.w3.org/2000/svg" id="eye-fill">
    <path d="M10.5 8a2.5 2.5 0 1 1-5 0 2.5 2.5 0 0 1 5 0z"></path>
    <path fill-rule="evenodd" d="M0 8s3-5.5 8-5.5S16 8 16 8s-3 5.5-8 5.5S0 8 0 8zm8 3.5a3.5 3.5 0 1 0 0-7 3.5 3.5 0 0 0 0 7z"></path>
  </symbol>
  <symbol viewBox="0 0 16 16" fill="currentColor" xmlns="http://www.w3.org/2000/svg" id="heart-fill">
    <path fill-rule="evenodd" d="M8 1.314C12.438-3.248 23.534 4.735 8 15-7.534 4.736 3.562-3.248 8 1.314z"></path>
  </symbol>
  <symbol viewBox="0 0 16 16" fill="currentColor" xmlns="http://www.w3.org/2000/svg" id="mic">
    <path fill-rule="evenodd" d="M3.5 6.5A.5.5 0 0 1 4 7v1a4 4 0 0 0 8 0V7a.5.5 0 0 1 1 0v1a5 5 0 0 1-4.5 4.975V15h3a.5.5 0 0 1 0 1h-7a.5.5 0 0 1 0-1h3v-2.025A5 5 0 0 1 3 8V7a.5.5 0 0 1 .5-.5z"></path>
    <path fill-rule="evenodd" d="M10 8V3a2 2 0 1 0-4 0v5a2 2 0 1 0 4 0zM8 0a3 3 0 0 0-3 3v5a3 3 0 0 0 6 0V3a3 3 0 0 0-3-3z"></path>
  </symbol>
  <symbol viewBox="0 0 16 16" fill="currentColor" xmlns="http://www.w3.org/2000/svg" id="moon">
    <path fill-rule="evenodd" d="M14.53 10.53a7 7 0 0 1-9.058-9.058A7.003 7.003 0 0 0 8 15a7.002 7.002 0 0 0 6.53-4.47z"></path>
  </symbol>
  <symbol viewBox="0 0 16 16" fill="currentColor" xmlns="http://www.w3.org/2000/svg" id="volume-up">
    <path fill-rule="evenodd" d="M6.717 3.55A.5.5 0 0 1 7 4v8a.5.5 0 0 1-.812.39L3.825 10.5H1.5A.5.5 0 0 1 1 10V6a.5.5 0 0 1 .5-.5h2.325l2.363-1.89a.5.5 0 0 1 .529-.06zM6 5.04L4.312 6.39A.5.5 0 0 1 4 6.5H2v3h2a.5.5 0 0 1 .312.11L6 10.96V5.04z"></path>
    <path d="M11.536 14.01A8.473 8.473 0 0 0 14.026 8a8.473 8.473 0 0 0-2.49-6.01l-.708.707A7.476 7.476 0 0 1 13.025 8c0 2.071-.84 3.946-2.197 5.303l.708.707z"></path>
    <path d="M10.121 12.596A6.48 6.48 0 0 0 12.025 8a6.48 6.48 0 0 0-1.904-4.596l-.707.707A5.483 5.483 0 0 1 11.025 8a5.483 5.483 0 0 1-1.61 3.89l.706.706z"></path>
    <path d="M8.707 11.182A4.486 4.486 0 0 0 10.025 8a4.486 4.486 0 0 0-1.318-3.182L8 5.525A3.489 3.489 0 0 1 9.025 8 3.49 3.49 0 0 1 8 10.475l.707.707z"></path>
  </symbol>
</svg>